HIERARCHY
ROOT Hips
{
    OFFSET 0.000000 0.000000 0.000000
    CHANNELS 6 Xposition Yposition Zposition Zrotation Xrotation Yrotation
    JOINT Spine
    {
        OFFSET -0.000000 7.246840 0.000000
        CHANNELS 3 Zrotation Xrotation Yrotation
        JOINT Spine1
        {
            OFFSET -0.000000 20.289354 0.000000
            CHANNELS 3 Zrotation Xrotation Yrotation
            JOINT Neck
            {
                OFFSET -0.000000 20.206032 1.836912
                CHANNELS 3 Zrotation Xrotation Yrotation
                JOINT Head
                {
                    OFFSET -0.000000 12.372654 -1.767522
                    CHANNELS 3 Zrotation Xrotation Yrotation
                    End Site
                    {
                        OFFSET -0.000000 22.094025 0.000000
                    }
                }
            }
            JOINT LeftShoulder
            {
                OFFSET 3.465871 17.201674 -0.568930
                CHANNELS 3 Zrotation Xrotation Yrotation
                JOINT LeftArm
                {
                    OFFSET 14.070313 0.000000 0.000000
                    CHANNELS 3 Zrotation Xrotation Yrotation
                    JOINT LeftForeArm
                    {
                        OFFSET 26.549477 0.000000 0.000000
                        CHANNELS 3 Zrotation Xrotation Yrotation
                        JOINT LeftHand
                        {
                            OFFSET 18.880413 0.000000 0.000000
                            CHANNELS 3 Zrotation Xrotation Yrotation
                            End Site
                            {
                                OFFSET 13.256415 0.000000 0.000000
                            }
                        }
                    }
                }
            }
            JOINT RightShoulder
            {
                OFFSET -3.526370 17.201674 -0.568930
                CHANNELS 3 Zrotation Xrotation Yrotation
                JOINT RightArm
                {
                    OFFSET -14.070313 0.000000 0.000000
                    CHANNELS 3 Zrotation Xrotation Yrotation
                    JOINT RightForeArm
                    {
                        OFFSET -26.549477 0.000000 0.000000
                        CHANNELS 3 Zrotation Xrotation Yrotation
                        JOINT RightHand
                        {
                            OFFSET -18.880413 0.000000 0.000000
                            CHANNELS 3 Zrotation Xrotation Yrotation
                            End Site
                            {
                                OFFSET -13.256415 0.000000 0.000000
                            }
                        }
                    }
                }
            }
        }
    }
    JOINT LeftUpLeg
    {
        OFFSET 8.837609 0.000000 0.000000
        CHANNELS 3 Zrotation Xrotation Yrotation
        JOINT LeftLeg
        {
            OFFSET -0.000000 -41.345005 0.000000
            CHANNELS 3 Zrotation Xrotation Yrotation
            JOINT LeftFoot
            {
                OFFSET -0.000000 -35.500874 0.000000
                CHANNELS 3 Zrotation Xrotation Yrotation
                JOINT LeftToeBase
                {
                    OFFSET -0.000000 -5.744446 13.256415
                    CHANNELS 3 Zrotation Xrotation Yrotation
                    End Site
                    {
                        OFFSET -0.000000 0.000000 3.535044
                    }
                }
            }
        }
    }
    JOINT RightUpLeg
    {
        OFFSET -8.837609 0.000000 0.000000
        CHANNELS 3 Zrotation Xrotation Yrotation
        JOINT RightLeg
        {
            OFFSET -0.000000 -41.345005 0.000000
            CHANNELS 3 Zrotation Xrotation Yrotation
            JOINT RightFoot
            {
                OFFSET -0.000000 -35.500874 0.000000
                CHANNELS 3 Zrotation Xrotation Yrotation
                JOINT RightToeBase
                {
                    OFFSET -0.000000 -5.744446 13.256415
                    CHANNELS 3 Zrotation Xrotation Yrotation
                    End Site
                    {
                        OFFSET -0.000000 0.000000 3.535044
                    }
                }
            }
        }
    }
}
MOTION
Frames:    7
Frame Time:    0.010000
2.190663    82.148956    -8.457516    4.483402    4.961648    1.505335    -4.134480    -14.714575    0.093484    0.097781    12.126639    0.617203    1.538339    18.775393    1.664936    -3.297666    -9.169917    1.041766    9.151613    6.059348    9.147461    8.812498    82.200790    -67.611633    7.867888    2.164829    -67.134506    26.745287    -3.914231    -44.979286    -9.731284    7.151255    10.681097    77.607849    87.253838    -23.682760    -16.749582    -3.175290    73.815536    -46.086349    -6.371462    35.982063    -0.403607    3.619490    1.034980    -1.044642    -10.961684    -2.617085    -1.189075    3.242677    -0.287217    0.126008    -1.114745    -0.177596    -13.493981    4.367692    -2.952806    8.120964    -11.784844    1.235962    2.302039    -0.056995    -8.924921    -0.135018    0.151496    0.241736    
2.206928    82.170197    -8.448892    4.518550    5.019424    1.653699    -4.090674    -14.732759    0.140577    0.097292    11.925548    0.659559    1.356311    18.819790    1.634556    -3.081486    -9.084516    1.056276    9.194478    5.998827    9.082669    10.261800    82.203484    -68.975105    7.747311    2.242612    -67.214981    26.654213    -3.838451    -44.870075    -9.807940    7.187713    10.747784    79.307617    87.425041    -25.407244    -16.811001    -3.093075    74.122612    -46.196598    -5.799053    35.112625    -0.449725    3.500503    0.957152    -1.025311    -10.859388    -2.735425    -1.256926    3.217068    -0.211050    0.118612    -1.162884    -0.167220    -13.528359    4.339910    -3.066403    8.101799    -11.723091    1.228876    2.319533    -0.102306    -8.957066    -0.125486    0.132192    0.224717    
2.236632    82.191101    -8.440763    4.566316    5.052315    1.830312    -4.229630    -14.683944    0.100165    0.514248    11.654038    0.592951    0.841207    18.913776    1.656822    -2.829187    -9.038533    1.124249    8.951386    6.028419    9.100157    12.670389    82.190407    -71.223145    7.795345    2.280107    -67.336639    26.483252    -3.605547    -44.594650    -10.319034    7.194034    10.878790    81.102608    87.561684    -27.076723    -16.734213    -3.101532    74.328163    -46.029160    -5.654710    34.898846    -0.533767    3.433392    0.698113    -0.965365    -10.818398    -2.442052    -1.561619    3.280832    -0.376351    0.207777    -1.482967    -0.293502    -13.588985    4.350051    -3.184639    8.097946    -11.669787    1.209545    2.311051    -0.136927    -8.980880    -0.097670    0.103544    0.174958    
2.255993    82.206139    -8.435501    4.600303    5.086112    1.994261    -4.259223    -14.681338    0.122671    0.599673    11.473628    0.611354    0.849752    19.038750    1.589277    -2.851567    -9.104156    1.048670    9.012441    6.050251    8.966327    14.194292    82.180733    -72.699188    7.761913    2.302937    -67.431137    26.439636    -3.538072    -44.454296    -10.448659    7.213399    10.973839    80.498245    87.451775    -26.476686    -16.521786    -2.958692    74.549255    -45.889114    -5.528983    34.802341    -0.591435    3.360564    0.589963    -0.956877    -10.770658    -2.267308    -1.596426    3.289987    -0.575241    0.228116    -1.542240    -0.322349    -13.624939    4.350545    -3.275119    8.075906    -11.614768    1.175518    2.342131    -0.179491    -9.017461    -0.092033    0.105176    0.164858    
2.288591    82.216370    -8.435315    4.633296    5.102568    2.129168    -3.934737    -14.629646    0.252191    -0.016470    11.300821    0.759121    1.262556    19.130177    1.496830    -2.864940    -9.214894    0.958915    9.372175    6.021710    8.793447    15.647503    82.152267    -74.054291    7.698455    2.373644    -67.518448    26.440275    -3.461578    -44.308788    -9.984810    7.240242    10.964199    81.352539    87.549675    -27.562536    -16.483187    -2.933167    74.680809    -45.809937    -5.396679    34.638351    -0.671942    3.298577    0.713956    -0.933504    -10.712399    -2.365541    -1.511816    3.381326    -0.563753    0.458987    -1.699462    -0.649219    -13.677517    4.350527    -3.331919    8.068571    -11.548263    1.171731    2.360937    -0.225013    -9.084960    -0.066063    0.070286    0.118382    
2.306904    82.221970    -8.433084    4.657707    5.120204    2.323949    -3.902486    -14.609536    0.250152    -0.047189    11.188281    0.755257    1.239892    19.153212    1.455064    -2.754119    -9.301519    0.937547    9.415167    5.987661    8.711827    17.505424    82.141319    -75.790421    7.653728    2.416236    -67.628319    26.466375    -3.397614    -44.119976    -10.042460    7.224534    11.026002    82.257233    87.689369    -28.511854    -16.480867    -2.975387    74.838051    -45.736561    -5.278552    34.428463    -0.719151    3.222591    0.852669    -0.970257    -10.627771    -2.456223    -1.544522    3.345769    -0.779402    0.441237    -1.658196    -0.623953    -13.703489    4.382592    -3.410341    8.047909    -11.509321    1.164641    2.327046    -0.271963    -9.193758    -0.075723    0.060361    0.135707    
2.325894    82.221489    -8.431120    4.677914    5.134216    2.525988    -4.114925    -14.575916    0.165441    0.489943    11.066207    0.644508    0.691258    19.171583    1.452392    -2.432941    -9.420076    0.988555    9.105148    6.001139    8.697330    19.899555    82.129745    -78.004761    7.644239    2.386271    -67.781517    26.529726    -3.395099    -43.934399    -10.618157    7.174542    11.120476    81.916580    87.794777    -28.006840    -16.424337    -2.944163    74.988930    -45.740200    -5.203099    34.310200    -0.762827    3.166042    0.928295    -0.969388    -10.595821    -2.590288    -1.275261    3.314493    -0.915454    0.348947    -1.358012    -0.492537    -13.732880    4.426280    -3.460629    8.039459    -11.482433    1.152068    2.329681    -0.328229    -9.318794    -0.066749    0.086735    0.119591    
